# xmcd
#
# Track frame offsets:
#	150
#	15125
#	32878
#	47832
#	62587
#	80444
#	94493
#	110547
#	130074
#	146110
#	161865
#	179917
#	197692
#	217281
#	233815
#	246052
#	262740
#	276289
#
# Disc length: 3860 seconds
#
# Revision: 3
# Processed by: cddbd v1.5.1PL0 Copyright (c) Steve Scherf et al.
# Submitted via: audiograbber 1.83.01
#
DISCID=0b0f1212
DTITLE=2005-02 Country Radio - 2005-02 Country Radio
DYEAR=2005
DGENRE=Country
TTITLE0=Blake Shelton - Goodbye Time (Album Version)
TTITLE1=Shania Twain - Don't!
TTITLE2=Jimmy Buffett - Piece Of Work
TTITLE3=Jo Dee Messina - My Give A Damn's Busted
TTITLE4=Lonestar - Class Reunion (That Used To Be Us)
TTITLE5=Julie Roberts - Wake Up Older
TTITLE6=SheDaisy - Don't Worry 'Bout A Thing
TTITLE7=Jedd Hughes - Soldier For The Lonely
TTITLE8=Lila McCann - Go Easy On Me
TTITLE9=Jeff Carson - God Save The World (Feat. Lisa Brokop)
TTITLE10=Rebecca Lynn Howard - That's Why I Hate Pontiacs
TTITLE11=Jay Teter - Until You Find Your Mr. Right
TTITLE12=Jessi Alexander - Canyon Prayer
TTITLE13=Tift Merritt - Good Hearted Man
TTITLE14=Wayne Warner - Something 'Bout You
TTITLE15=Katrina Elam - I Want A Cowboy
TTITLE16=Be Good Tanyas - Opal's Blues
TTITLE17=Kelly Michelle - Clean Up Good
EXTD=
EXTT0=
EXTT1=
EXTT2=
EXTT3=
EXTT4=
EXTT5=
EXTT6=
EXTT7=
EXTT8=
EXTT9=
EXTT10=
EXTT11=
EXTT12=
EXTT13=
EXTT14=
EXTT15=
EXTT16=
EXTT17=
PLAYORDER=
